<?xml version="1.0" encoding="utf-8"?>
<!-- Generator: Adobe Illustrator 15.1.0, SVG Export Plug-In . SVG Version: 6.00 Build 0)  -->
<!DOCTYPE svg PUBLIC "-//W3C//DTD SVG 1.1//EN" "http://www.w3.org/Graphics/SVG/1.1/DTD/svg11.dtd">
<svg version="1.1" id="Page_1_1_" xmlns="http://www.w3.org/2000/svg" xmlns:xlink="http://www.w3.org/1999/xlink" x="0px" y="0px"
	 width="297px" height="164px" viewBox="0 0 297 164" enable-background="new 0 0 297 164" xml:space="preserve">
<g id="Fill_1">
	<g>
		<path fill-rule="evenodd" clip-rule="evenodd" fill="#FF8C00" d="M184.1,8.023c-6.811,6.756-9.539,17.493-9.539,29.269v3.989
			h-11.408v11.602h11.408v72.225h14.816V52.883h19.926V41.281h-19.926v-4.506c0-12.988,3.236-24.251,16.01-24.251
			c4.426,0,7.32,0.869,9.538,1.908l2.043-11.78c-2.895-1.208-7.321-2.42-12.773-2.42C197.21,0.232,189.718,2.482,184.1,8.023z
			 M136.587,125.107h14.984V41.281h-14.984V125.107z M280.318,41.281l-16.354,49.187c-2.043,6.062-3.746,12.471-5.274,17.49h-0.345
			c-1.361-5.02-3.404-11.603-5.447-17.143l-17.883-49.534h-16.349l30.314,77.248c0.852,1.903,1.192,3.115,1.192,3.98
			c0,0.864-0.512,2.081-1.192,3.637c-3.579,7.795-8.513,13.683-12.603,16.977c-4.428,3.807-9.365,6.235-13.115,7.447l3.75,12.641
			c3.746-0.691,10.896-3.29,18.389-9.699c10.22-9.177,17.541-23.725,28.275-52.48l22.475-59.75H280.318z"/>
	</g>
</g>
<g id="Fill_3">
	<g>
		<path fill-rule="evenodd" clip-rule="evenodd" fill="#FF8C00" d="M113.004,48.271c-5.424-6.13-13.069-9.233-22.747-9.233
			c-0.125,0-0.25,0.008-0.372,0.008V54.35c5.271,0.036,9.257,1.499,11.842,4.368c2.687,2.994,4.048,7.517,4.048,13.433v48.375
			h15.244V72.821C121.02,62.561,118.32,54.293,113.004,48.271z"/>
	</g>
</g>
<g id="Fill_4">
	<g>
		<path fill-rule="evenodd" clip-rule="evenodd" fill="#666666" d="M74.833,42.816c-1.616,0.93-3.134,2.009-4.528,3.277
			c-0.719,0.658-1.404,1.346-2.033,2.053c-5.209,5.867-7.888,13.885-8.003,23.817V87.43c0,5.928-1.296,10.445-3.867,13.436
			c-0.872,1.015-1.918,1.848-3.121,2.506c-2.161,1.232-4.819,1.871-7.958,1.871c-0.069,0-0.132-0.004-0.198-0.004
			s-0.125,0.004-0.195,0.004c-3.138,0-5.796-0.639-7.968-1.871c-1.199-0.658-2.241-1.491-3.113-2.506
			c-2.568-2.99-3.871-7.508-3.871-13.436V71.964c-0.111-9.933-2.787-17.95-7.996-23.817c-0.632-0.707-1.313-1.395-2.033-2.053
			c-1.394-1.269-2.912-2.348-4.528-3.277c-4.277-2.457-9.316-3.729-15.05-3.778v15.315c0.052,0,0.101-0.004,0.157-0.004
			c4.837,0,8.555,1.479,11.04,4.393c2.45,2.869,3.735,7.141,3.854,12.688c0.007,0.283,0.021,0.55,0.021,0.845l0.017,14.705
			c0,10.232,2.693,18.468,8.02,24.461c0.636,0.723,1.324,1.418,2.04,2.064c4.983,4.522,11.426,6.866,19.129,7.02h0.956
			c7.704-0.153,14.149-2.497,19.129-7.02c0.712-0.646,1.397-1.342,2.043-2.064c5.316-5.993,8.013-14.229,8.013-24.461l0.018-14.705
			c0-0.295,0.014-0.562,0.021-0.845V86.75c0,10.281-2.579,18.545-7.659,24.57c5.08-6.025,7.662-14.289,7.662-24.57V71.431
			c0.118-5.548,1.407-9.819,3.854-12.688c2.484-2.914,6.199-4.393,11.036-4.393c0.056,0,0.108,0.004,0.163,0.004V39.038
			C84.138,39.087,79.106,40.359,74.833,42.816z"/>
	</g>
</g>
<g id="Fill_5">
	<g>
		<rect x="136.587" y="42.917" fill-rule="evenodd" clip-rule="evenodd" fill="#FF8C00" width="15.567" height="81.492"/>
	</g>
</g>
<g id="Fill_6">
	<g>
		<path fill-rule="evenodd" clip-rule="evenodd" fill="#FF8C00" d="M144.371,7.991c-8.583,0-15.567,6.962-15.567,15.521
			c0,8.559,6.984,15.525,15.567,15.525s15.567-6.967,15.567-15.525C159.938,14.953,152.954,7.991,144.371,7.991z M144.371,30.807
			c-4.031,0-7.311-3.273-7.311-7.294c0-4.017,3.28-7.29,7.311-7.29c4.034,0,7.311,3.273,7.311,7.29
			C151.682,27.533,148.405,30.807,144.371,30.807z"/>
	</g>
</g>
</svg>
